<svg width="467" height="377" viewBox="0 0 467 377" fill="none" xmlns="http://www.w3.org/2000/svg">
<path opacity="0.15" d="M321.992 70.7206C285.794 70.7206 258.881 99.15 235.437 122.19L225.632 132.259C213.641 102.743 178.926 70.7095 144.488 70.7095C103.41 70.7095 74.5485 100.614 74.5485 142.274C74.637 182.425 107.189 214.908 147.254 214.825L148.361 214.825C185.024 214.825 211.943 186.395 235.42 162.873L243.493 154.384C257.686 180.773 291.825 214.825 326.369 214.825C367.453 214.825 396.292 184.882 396.292 142.263C395.683 102.161 362.76 70.1384 322.745 70.7317L321.992 70.7206ZM148.361 185.918C124.502 185.824 105.23 166.361 105.324 142.451L105.324 142.296C105.324 117.787 122.958 100.813 147.376 99.6545C171.562 98.5067 204.003 114.77 224.315 133.618L215.91 142.296C196.776 159.929 176.724 185.918 148.361 185.918ZM323.945 186.434C301.829 187.1 268.282 171.574 244.605 153.275L255.002 142.307C272.835 124.263 293.546 99.2553 322.988 99.6656C346.432 99.7987 365.405 118.813 365.538 142.307C365.538 167.298 350.416 185.625 323.945 186.434ZM467 143C467 272.232 362.456 377 233.5 377C104.544 377 3.17104e-05 272.238 2.0428e-05 143C9.14566e-06 13.7621 104.538 -91 233.5 -91C362.451 -91 467 13.7676 467 143Z" fill="url(#paint0_linear_6710_44393)"/>
<defs>
<linearGradient id="paint0_linear_6710_44393" x1="331.281" y1="167.968" x2="2.47617e-07" y2="167.968" gradientUnits="userSpaceOnUse">
<stop stop-color="white" stop-opacity="0"/>
<stop offset="1" stop-color="white"/>
</linearGradient>
</defs>
</svg>
